<?xml version="1.0" standalone="no"?>
<!DOCTYPE svg PUBLIC "-//W3C//DTD SVG 1.1//EN" "http://www.w3.org/Graphics/SVG/1.1/DTD/svg11.dtd" >
<svg xmlns="http://www.w3.org/2000/svg">
<metadata>
This is a custom SVG webfont generated by Font Squirrel.
Designer    : NJ McLellan
</metadata>
<defs>
<font id="webfontsqiKD7cX" horiz-adv-x="500" >
<font-face units-per-em="1000" ascent="800" descent="-200" />
<missing-glyph horiz-adv-x="300" />
<glyph unicode="&#xfb01;" horiz-adv-x="358" d="M249 631v-74q-1 -1 -2 -1t-3 -1q-22 -10 -34 -22q-16 -18 -23 -33q-8 -22 -8 -41v-38h70h69v-420h-69v349h-70v-349h-69v349h-70v71h70v38q0 32 14 68q14 32 37 56q18 18 56 38q14 5 32 10z" />
<glyph unicode="&#xfb02;" horiz-adv-x="359" d="M179 421h70v136q-1 -1 -2 -1t-3 -1q-22 -10 -34 -22q-16 -18 -23 -33q-8 -22 -8 -41v-38zM319 631v-630h-70v349h-70v-349h-69v349h-70v71h70v38q0 32 14 68q14 32 37 56q18 18 56 38q14 5 32 10h70z" />
<glyph unicode=" "  horiz-adv-x="300" />
<glyph unicode="&#x09;" horiz-adv-x="300" />
<glyph unicode="&#xa0;" horiz-adv-x="300" />
<glyph unicode="!" horiz-adv-x="149" d="M109 0h-69v69h69v-69zM40 630h69v-501h-69v501z" />
<glyph unicode="&#x22;" horiz-adv-x="268" d="M74 630q15 0 25 -10t10 -25q0 -40 -21.5 -72.5t-47.5 -32.5q-12 0 -12 4q0 1 6 14t8.5 29t-1.5 47q-1 2 -1 11q0 14 10 24.5t24 10.5zM173 630q15 0 25 -10t10 -25q0 -40 -21.5 -72.5t-47.5 -32.5q-12 0 -12 4q0 1 6 14t8.5 29t-1.5 47q-1 2 -1 11q0 14 10 24.5t24 10.5z " />
<glyph unicode="#" horiz-adv-x="395" d="M226 286v58h-58v-58h58zM226 158v58h-58v-58h-70v58h-58v70h58v58h-58v70h58v58h70v-58h58v58h70v-58h59v-70h-59v-58h59v-70h-59v-58h-70z" />
<glyph unicode="$" horiz-adv-x="374" d="M152 361v89q-2 -1 -5.5 -2.5t-4.5 -1.5q-28 -12 -31 -33q-3 -22 22 -41q1 -1 8 -5t11 -6zM222 269v-89q2 1 5.5 2.5t4.5 1.5q12 5 20 14q8 11 8 20q4 20 -19 40q-1 1 -8 5t-11 6zM222 352v-8q18 -5 29 -11q27 -11 46 -32q18 -20 28 -44q9 -24 6 -49q-3 -24 -18 -45 q-18 -21 -38 -33q-26 -15 -53 -20v-109h-70v108q-31 4 -58 18q-30 16 -49 37l51 47q11 -12 29 -22q9 -4 27 -10v108q-5 1 -10 3l-10 4q-6 3 -10 4q-28 15 -45 32q-17 19 -28 43q-9 23 -6 48t18 46q17 21 38 34q24 15 53 20v110h70v-1v-108q33 -6 57 -19q35 -19 49 -38 l-52 -48q-8 13 -29 24q-11 6 -25 9v-98z" />
<glyph unicode="%" horiz-adv-x="589" d="M40 1l425 630h84l-424 -630h-85zM479 128q0 23 -16.5 39.5t-39.5 16.5t-39 -16t-16 -40q0 -25 16 -41t39 -16t39.5 16.5t16.5 40.5zM423 254q52 0 89 -37t37 -89q0 -53 -37 -90t-89 -37q-51 0 -88 37t-37 90q0 52 37 89t88 37zM222 504q0 24 -17 40.5t-40 16.5t-39 -16 t-16 -41q0 -24 16 -40t39 -16t40 16.5t17 39.5zM165 631q52 0 89.5 -37t37.5 -90q0 -52 -37.5 -89t-89.5 -37q-51 0 -88 37t-37 89q0 53 37 90t88 37z" />
<glyph unicode="&#x26;" horiz-adv-x="447" d="M407 110l-58 -11l-1 -1q-14 -30 -34 -51q-22 -21 -51 -33q-27 -13 -63 -13t-62 13q-28 12 -51 33q-23 23 -34 51q-13 30 -13 62q0 30 13 63q11 28 34 51q14 14 35 27q-29 29 -29 73t31.5 75.5t75.5 31.5q45 0 76 -31.5t31 -75.5h-70q0 15 -10.5 26t-26.5 11 q-15 0 -26 -11t-11 -26q0 -16 11 -26.5t26 -10.5v-86q-37 0 -63.5 -26t-26.5 -64t26.5 -64t63.5 -26q38 0 64 26t26 63l105 19z" />
<glyph unicode="'" horiz-adv-x="169" d="M74 630q15 0 25 -10t10 -25q0 -40 -21.5 -72.5t-47.5 -32.5q-12 0 -12 4q0 1 6 14t8.5 29t-1.5 47q-1 2 -1 11q0 14 10 24.5t24 10.5z" />
<glyph unicode="(" horiz-adv-x="199" d="M159 459q-49 -65 -49 -147q0 -78 44 -141l-56 -41q-58 80 -58 182q0 105 62 188z" />
<glyph unicode=")" horiz-adv-x="199" d="M40 459l56 41q63 -82 63 -188q0 -102 -58 -182l-56 41q44 63 44 141q0 82 -49 147z" />
<glyph unicode="*" horiz-adv-x="388" d="M348 521l-84 -48l84 -49l-35 -60l-84 48v-97h-70v97l-84 -48l-35 60l84 49l-84 48l35 61l84 -49v97h70v-97l84 49z" />
<glyph unicode="+" horiz-adv-x="394" d="M40 350h122v122h70v-122h122v-70h-122v-122h-70v122h-122v70z" />
<glyph unicode="," horiz-adv-x="169" d="M74 69q15 0 25 -10t10 -25q0 -40 -21.5 -72.5t-47.5 -32.5q-12 0 -12 4q0 1 6 14t8.5 29t-1.5 47q-1 2 -1 11q0 14 10 24.5t24 10.5z" />
<glyph unicode="-" horiz-adv-x="478" d="M40 316h398v-71h-398v71z" />
<glyph unicode="." horiz-adv-x="169" d="M109 0h-69v69h69v-69z" />
<glyph unicode="/" horiz-adv-x="437" d="M397 630l-280 -630h-77l281 630h76z" />
<glyph unicode="0" horiz-adv-x="710" d="M40 315q0 130 92.5 222.5t222.5 92.5t222.5 -92.5t92.5 -222.5t-92.5 -222.5t-222.5 -92.5q-131 0 -223 92t-92 223zM110 315q0 -101 71.5 -173t173.5 -72q101 0 173 72t72 173t-72 173t-173 72q-102 0 -173.5 -72t-71.5 -173z" />
<glyph unicode="1" horiz-adv-x="213" d="M173 0h-70v531l-14 -13l-49 49l62 63h71v-630z" />
<glyph unicode="2" horiz-adv-x="368" d="M40 75l208 374l2 3q8 18 8 34q0 31 -21.5 52.5t-52.5 21.5t-52.5 -21.5t-21.5 -52.5h-70q0 59 42.5 101.5t101.5 42.5q39 0 72.5 -19.5t51.5 -52.5q20 -32 20 -72q0 -37 -17 -66l-3 -6l-190 -344h210v-70h-288v70v5z" />
<glyph unicode="3" horiz-adv-x="494" d="M244 69q26 0 54 11q26 10 45 30q19 19 30 44q11 28 11 55q0 26 -11 54q-11 25 -30 45t-45 30q-28 11 -54 11v71q29 0 49 20t20 49t-20 49.5t-49 20.5q-25 0 -44 -15.5t-24 -38.5h-72q6 53 46 89t94 36q58 0 99 -41.5t41 -99.5q0 -56 -38 -96q25 -13 46 -35q28 -28 45 -67 q17 -40 17 -82t-17 -82q-17 -37 -45 -66q-28 -28 -67 -45q-35 -16 -81 -16q-47 0 -82 16q-38 16 -67 45t-45 66q-5 12 -10 29h74l1 -2q11 -25 30 -44t44 -30q28 -11 55 -11z" />
<glyph unicode="4" horiz-adv-x="427" d="M138 421h109v109zM387 421v-70h-70v-351h-70v351h-207v72l207 207h70v-209h70z" />
<glyph unicode="5" horiz-adv-x="475" d="M85 630h302v-71h-237l-12 -139h87q41 0 81 -17q39 -17 67 -45t45 -67q17 -40 17 -82t-17 -82q-16 -37 -45 -66q-28 -28 -67 -45q-35 -16 -81 -16q-47 0 -82 16q-38 16 -67 45q-21 21 -36 48l61 35q12 -22 25 -34q19 -19 44 -30q28 -11 55 -11q26 0 54 11q25 10 45 30 q19 19 30 44q11 28 11 55q0 26 -11 54q-10 25 -30 45t-45 30q-28 11 -54 11h-165z" />
<glyph unicode="6" d="M250 420q40 0 82 -17q39 -17 67 -45t45 -67q16 -35 16 -82t-16 -82q-16 -37 -45 -66q-28 -28 -67 -45q-36 -16 -82 -16t-82 16q-38 16 -66 45t-45 66q-17 40 -17 82t17 82q2 4 3 7l155 332h77l-102 -219q28 9 60 9zM250 69q27 0 55 11q26 11 44 30q19 19 30 44 q11 23 11 55q0 30 -11 54q-11 25 -30 45q-18 19 -44 30q-28 11 -55 11q-26 0 -54 -11q-26 -10 -45 -30q-18 -20 -30 -45q-11 -28 -11 -54q0 -27 11 -55q11 -24 30 -44t45 -30q28 -11 54 -11z" />
<glyph unicode="7" horiz-adv-x="477" d="M323 559h-283v71h397l-319 -630h-78z" />
<glyph unicode="8" d="M352 393q25 -13 46 -35q28 -28 45 -67q17 -40 17 -82t-17 -82q-17 -37 -45 -66q-28 -28 -67 -45q-35 -16 -81 -16q-47 0 -82 16q-38 16 -67 45t-45 66q-16 35 -16 82t16 82q17 39 45 67q23 23 46 35q-38 41 -38 96q0 59 41.5 100t99.5 41t99 -41.5t41 -99.5 q0 -56 -38 -96zM250 420q29 0 49 20t20 49t-20 49.5t-49 20.5t-49.5 -20.5t-20.5 -49.5t20.5 -49t49.5 -20zM250 69q26 0 54 11q26 10 45 30q19 19 30 44q11 28 11 55q0 26 -11 54q-11 25 -30 45t-45 30q-28 11 -54 11q-27 0 -55 -11q-25 -11 -44 -30q-19 -20 -30 -45 q-11 -28 -11 -54q0 -27 11 -55q11 -25 30 -44t44 -30q28 -11 55 -11z" />
<glyph unicode="9" d="M250 210q-45 0 -81 16q-39 17 -67 45q-29 29 -45 67q-17 42 -17 83q0 40 17 82q17 37 45 66q28 27 67 44q40 17 81 17q42 0 82 -17q39 -17 67 -44q29 -29 45 -66q16 -36 16 -82q0 -47 -16 -83l-3 -6l-155 -332h-77l102 218q-32 -8 -61 -8zM250 561q-26 0 -54 -11 q-26 -12 -45 -30q-18 -20 -30 -45q-11 -28 -11 -54q0 -27 11 -55q12 -26 30 -44q19 -20 45 -30q24 -11 54 -11q31 0 55 11q26 11 44 30q19 18 30 44q11 24 11 55q0 30 -11 54q-11 25 -30 45q-18 18 -44 30q-28 11 -55 11z" />
<glyph unicode=":" horiz-adv-x="169" d="M109 0h-69v69h69v-69zM109 129h-69v69h69v-69z" />
<glyph unicode=";" horiz-adv-x="169" d="M109 129h-69v69h69v-69zM74 69q15 0 25 -10t10 -25q0 -40 -21.5 -72.5t-47.5 -32.5q-12 0 -12 4q0 1 6 14t8.5 29t-1.5 47q-1 2 -1 11q0 14 10 24.5t24 10.5z" />
<glyph unicode="&#x3c;" horiz-adv-x="352" d="M312 142l-49 -49l-223 222l223 223l49 -50l-173 -173z" />
<glyph unicode="=" horiz-adv-x="395" d="M40 414h315v-70h-315v70zM40 286h315v-70h-315v70z" />
<glyph unicode="&#x3e;" horiz-adv-x="352" d="M40 142l173 173l-173 173l49 50l223 -223l-223 -222z" />
<glyph unicode="?" horiz-adv-x="401" d="M235 0h-69v69h69v-69zM194 129q-25 0 -46 9q-20 8 -38 26t-26 38q-9 21 -9 46t9 46t26 38q16 16 38 26q21 9 46 9q23 0 37 7q19 9 31 21q13 13 21 32t8 37t-8 37q-7 19 -21 31q-12 14 -31 21q-19 8 -37 8t-37 -8t-32 -21q-12 -12 -21 -31l-64 28q13 30 36 53t53 36t65 13 q32 0 65 -13q30 -13 53 -36t36 -53q13 -33 13 -65q0 -35 -13 -65t-36 -53t-53 -36q-27 -13 -65 -13q-10 0 -19 -4q-8 -3 -16 -10q-7 -8 -10 -16q-4 -7 -4 -19t4 -19q3 -8 10 -16q8 -7 16 -10q7 -4 19 -4t19 4q9 4 15 10q7 7 11 16l64 -27q-11 -24 -25 -38q-16 -16 -38 -25 q-19 -10 -46 -10z" />
<glyph unicode="@" horiz-adv-x="710" d="M40 316q0 130 92.5 222.5t222.5 92.5t222.5 -92.5t92.5 -222.5q0 -106 -62.5 -189t-160.5 -113v75v53q-1 -1 -10 -4q-36 -13 -68 -14q-36 -2 -62 7q-30 9 -51 24q-23 18 -35 37q-14 23 -14 45q-1 21 10 47q11 22 31 39q21 17 49 27t61 12q34 1 65 19q7 5 13 10 q-6 11 -17 22q-14 14 -30 20q-19 8 -36 8q-16 0 -37 -8q-16 -6 -30 -20q-3 -3 -9 -11l-52 37q7 11 16 19q17 17 45 32q27 12 59 14h1h1h1h1h1h1h2h1h1h1q31 0 58 -12h1v-1h1h1v-1h1h1q28 -15 45 -32q21 -21 34 -50q12 -28 12 -61v-221l-2 -2q92 74 92 192q0 101 -72 173 t-173 72t-173 -72t-72 -173q0 -102 72 -173.5t173 -71.5q18 0 27 1v-70q-9 -1 -27 -1q-131 0 -223 92.5t-92 222.5zM447 219v102q-7 -4 -23 -10q-28 -10 -61 -12q-39 -1 -65 -17q-28 -16 -28 -43q2 -23 31 -39q29 -15 66 -12q22 0 46 8q18 7 34 23z" />
<glyph unicode="A" horiz-adv-x="625" d="M390 310l-78 174l-77 -174h155zM312 657l293 -657h-77l-107 240h-218l-106 -240h-77z" />
<glyph unicode="B" horiz-adv-x="472" d="M221 0h-181v630h187q58 0 98.5 -40.5t40.5 -98.5v-1q0 -55 -39 -96q49 -28 77 -76.5t28 -106.5q0 -88 -62 -149.5t-149 -61.5zM227 559h-116v-137h116q28 0 48 20t20 49q0 28 -20 48t-48 20zM221 351h-110v-280h110q58 0 99 41t41 99t-41 99t-99 41z" />
<glyph unicode="C" horiz-adv-x="540" d="M40 315q0 130 92.5 222.5t222.5 92.5q65 0 127 -27l-28 -64q-45 21 -99 21q-101 0 -173 -72t-72 -173t72 -173t173 -72q57 0 113 27l32 -62q-65 -35 -145 -35q-131 0 -223 92t-92 223z" />
<glyph unicode="D" horiz-adv-x="543" d="M40 0v629h149q131 0 222.5 -91.5t91.5 -222.5t-92 -223t-222 -92h-149zM189 558h-78v-487h78q101 0 172 71t71 173q0 101 -71 172t-172 71z" />
<glyph unicode="E" horiz-adv-x="478" d="M110 421h122v-70h-122v-281h328v-70h-398v630h398v-71h-328v-138z" />
<glyph unicode="F" horiz-adv-x="478" d="M110 421h122v-70h-122v-351h-70v630h398v-71h-328v-138z" />
<glyph unicode="G" horiz-adv-x="710" d="M40 315q0 130 92.5 222.5t222.5 92.5q65 0 127 -27l-28 -64q-45 21 -99 21q-101 0 -173 -72t-72 -173t72 -173t173 -72q92 0 160.5 60t82.5 150h-186v70h256q2 -22 2 -35q0 -130 -92.5 -222.5t-222.5 -92.5q-131 0 -223 92t-92 223z" />
<glyph unicode="H" horiz-adv-x="478" d="M110 421h258v209h70v-630h-70v351h-258v-351h-70v630h70v-209z" />
<glyph unicode="I" horiz-adv-x="220" d="M40 630h140v-70h-35v-490h35v-70h-140v70h35v490h-35v70z" />
<glyph unicode="J" horiz-adv-x="405" d="M295 164v466h70v-466q0 -68 -48 -116t-116 -48q-60 0 -105.5 39t-55.5 97h73q9 -29 33 -47t55 -18q39 0 66.5 27t27.5 66z" />
<glyph unicode="K" horiz-adv-x="543" d="M110 446l219 184h108v-1l-257 -215l323 -414h-89l-288 369l-16 -14v-355h-70v629h70v-183z" />
<glyph unicode="L" horiz-adv-x="477" d="M40 630h70v-560h327v-70h-397v630z" />
<glyph unicode="M" horiz-adv-x="665" d="M549 630h76v-630h-70v457l-185 -457h-75l-185 457v-457h-70v630h75l217 -536z" />
<glyph unicode="N" horiz-adv-x="595" d="M485 630h70v-629v-1h-85l-360 528v-528h-70v630h85l360 -527v527z" />
<glyph unicode="O" horiz-adv-x="710" d="M40 315q0 130 92.5 222.5t222.5 92.5t222.5 -92.5t92.5 -222.5t-92.5 -222.5t-222.5 -92.5q-131 0 -223 92t-92 223zM110 315q0 -101 71.5 -173t173.5 -72q101 0 173 72t72 173q0 102 -72 173.5t-173 71.5q-102 0 -173.5 -71.5t-71.5 -173.5z" />
<glyph unicode="P" horiz-adv-x="478" d="M298 351h-188v-350h-70v629h258q58 0 99 -41t41 -99t-41 -98.5t-99 -40.5zM298 559h-187v-137h187q29 0 49 20t20 48q0 29 -20 49t-49 20z" />
<glyph unicode="Q" horiz-adv-x="710" d="M110 315q0 -101 72 -173t173 -72q65 0 122 33l-29 29l50 50l35 -35q67 69 67 168q0 102 -71.5 173.5t-173.5 71.5q-101 0 -173 -71.5t-72 -173.5zM40 315q0 130 92.5 222.5t222.5 92.5t222.5 -92.5t92.5 -222.5q0 -128 -87 -218l47 -46l-51 -51l-51 52q-80 -52 -173 -52 q-131 0 -223 92t-92 223z" />
<glyph unicode="R" horiz-adv-x="544" d="M181 351h-71v-350h-70v628v1h258q58 0 99 -41t41 -99t-41 -98.5t-99 -40.5h-31l237 -350h-86zM298 559h-187v-137h187q29 0 49 20t20 48q0 29 -20 49t-49 20z" />
<glyph unicode="S" horiz-adv-x="515" d="M441 528q19 -34 19 -79h-70q0 30 -13 47q-10 17 -34 34q-21 14 -47 22q-27 9 -52 9q-21 0 -49 -7q-27 -8 -43 -21q-18 -12 -31 -34q-11 -20 -11 -43q0 -24 2 -31q1 -16 13 -29q11 -13 39 -23q27 -9 80 -9q54 0 101 -14q43 -14 72 -36q29 -23 43 -51q15 -29 15 -59 q0 -44 -16 -83q-17 -39 -45 -64q-29 -26 -70 -42q-40 -15 -88 -15q-50 0 -90 18q-38 17 -68 47q-28 28 -43 65q-15 33 -15 81h70q0 -33 10 -56q12 -27 29 -43q18 -19 46 -31q30 -11 61 -11q70 0 109 36q40 37 40 98q0 19 -11 36q-15 20 -32 29q-23 12 -51 19t-67 7 q-68 0 -108 15q-41 15 -62 39t-28 53q-6 28 -6 54q0 40 18 73q16 30 47 55q27 22 66 34q36 12 73 12q38 0 77 -12q36 -10 70 -35q31 -24 50 -55z" />
<glyph unicode="T" horiz-adv-x="395" d="M355 630v-70h-122v-559h-70v559h-123v70h315z" />
<glyph unicode="U" horiz-adv-x="543" d="M40 234v396h71v-396q0 -68 47 -115t113 -47q67 0 114 47t47 115v396h71v-396q0 -96 -68.5 -164.5t-163.5 -68.5q-96 0 -163.5 68.5t-67.5 164.5z" />
<glyph unicode="V" horiz-adv-x="595" d="M114 630l183 -532l184 532h74l-217 -630h-81l-217 630h74z" />
<glyph unicode="W" horiz-adv-x="738" d="M417 630l105 -491l104 491h72l-134 -630h-84l-111 522l-111 -522h-84l-134 630h72l104 -491l104 491h97z" />
<glyph unicode="X" horiz-adv-x="590" d="M125 630l170 -252l170 252h85l-213 -315l213 -315h-85l-170 253l-170 -253h-85l213 315l-213 315h85z" />
<glyph unicode="Y" horiz-adv-x="477" d="M120 630l118 -214l119 214h80l-164 -295v-334h-70v334l-163 295h80z" />
<glyph unicode="Z" horiz-adv-x="589" d="M40 0v71l416 488h-416v71h509v-71l-416 -488h416v-71h-509z" />
<glyph unicode="[" horiz-adv-x="220" d="M40 630h140v-70h-70v-490h70v-70h-140v630z" />
<glyph unicode="\" horiz-adv-x="437" d="M116 630l281 -630h-77l-280 630h76z" />
<glyph unicode="]" horiz-adv-x="220" d="M180 630v-630h-140v70h70v490h-70v70h140z" />
<glyph unicode="^" horiz-adv-x="275" d="M138 630l97 -82l-45 -53l-52 44l-53 -44l-45 53z" />
<glyph unicode="_" horiz-adv-x="665" d="M40 71h585v-71h-585v71z" />
<glyph unicode="`" horiz-adv-x="223" d="M40 576l45 54l98 -82l-45 -53z" />
<glyph unicode="a" horiz-adv-x="418" d="M129 318q-8 -8 -11 -12l-57 41q7 12 18 21q21 22 50 35q30 15 65 17h13q36 -2 64 -14h1v-1h2v-1h2v-1q28 -13 50 -35q18 -17 38 -55q14 -34 14 -68v-245h-70v17q-2 -1 -6 -2t-6 -3q-36 -14 -75 -15q-33 -1 -69 8q-33 9 -57 27q-24 17 -39 41q-15 25 -15 50q-1 25 11 52 q11 24 35 43q20 19 54 31q35 12 68 13q42 2 72 21q3 2 14 10q-9 16 -18 25q-15 15 -34 23q-22 8 -40 8h-1q-18 0 -40 -8q-21 -8 -33 -23zM307 103l1 -1v114q-7 -4 -26 -11q-33 -12 -68 -13q-44 -2 -72 -20q-32 -20 -31 -47q2 -27 35 -43q31 -16 73 -13q27 0 50 9q22 7 38 25 z" />
<glyph unicode="b" horiz-adv-x="477" d="M227 1q-46 0 -82 16l-15 8q-14 7 -20 12v-36h-70v630h70v-246q14 10 35 19q42 17 82 17t82 -17q39 -16 67 -44t45 -66q16 -35 16 -82t-16 -83q-16 -38 -45 -67q-28 -28 -67 -45q-36 -16 -82 -16zM227 352q-26 0 -54 -11q-25 -11 -45 -30q-10 -10 -18 -23v-152 q6 -11 18 -23q20 -19 45 -30q28 -11 54 -11q27 0 55 11q26 11 44 30q19 19 30 44q11 23 11 55q0 30 -11 54q-10 26 -30 45q-18 19 -44 30q-28 11 -55 11z" />
<glyph unicode="c" horiz-adv-x="461" d="M363 130l58 -41q-31 -42 -74 -64q-45 -24 -98 -24q-46 0 -81 16q-39 17 -67 45q-29 28 -45 66q-16 35 -16 82t16 82q17 39 45 67t67 45q40 17 81 17q55 0 98 -25q42 -22 74 -63l-58 -41q-21 26 -49 42t-65 16q-27 0 -55 -11q-26 -11 -44 -30q-20 -19 -30 -45 q-11 -24 -11 -54q0 -32 11 -55q11 -25 30 -44q18 -19 44 -30q28 -11 55 -11q37 0 65 16q28 17 49 44z" />
<glyph unicode="d" horiz-adv-x="477" d="M250 1q-46 0 -81 16q-39 17 -67 45q-29 29 -45 67q-17 42 -17 83q0 42 17 82q17 38 45 66t67 44q40 17 81 17q42 0 82 -17q19 -7 35 -19v246h70v-602v-28h-70v36q-14 -11 -35 -20q-35 -16 -82 -16zM250 352q-26 0 -54 -11q-26 -11 -45 -30t-30 -45q-11 -28 -11 -54 q0 -27 11 -55q11 -25 30 -44t45 -30q28 -11 54 -11q27 0 55 11q25 11 44 30q12 12 18 23v152q-6 11 -18 23q-19 19 -44 30q-28 11 -55 11z" />
<glyph unicode="e" d="M457 176h-343q6 -25 19 -42q10 -17 30 -34q17 -13 40 -22q26 -8 47 -8q41 0 72 19q30 19 50 52l59 -35q-27 -48 -74 -77q-46 -28 -107 -28q-46 0 -82 16q-38 17 -66 45t-45 66q-17 40 -17 82t17 82q17 39 45 67q28 29 66 45q42 17 82 17q42 0 82 -17q39 -17 67 -45 t45 -67q16 -35 16 -82q0 -11 -1 -18q0 -2 -2 -16zM250 350q-21 0 -47 -8q-23 -9 -40 -22q-18 -14 -30 -33q-13 -19 -19 -41h272q-12 46 -49 74q-37 30 -87 30z" />
<glyph unicode="f" horiz-adv-x="289" d="M249 630v-74q-2 0 -4 -2q-19 -8 -34 -22q-15 -12 -23 -33q-9 -19 -9 -41v-37h70v-71h-70v-349h-69v349h-70v71h70v37q0 34 14 68q16 34 38 56q23 24 55 38q14 5 32 10z" />
<glyph unicode="g" d="M407 429v-56q-7 0 -9 -1l1 -1q28 -22 45 -53q16 -28 16 -65t-16 -65q-18 -30 -45 -52q-25 -20 -67 -35q-16 -5 -44 -11q5 -1 24 -7q35 -13 62 -34q26 -22 42 -52q15 -29 15 -63t-15 -63q-17 -32 -42 -51q-27 -21 -62 -34q-39 -13 -76 -13q-38 0 -77 13q-35 13 -62 34 q-27 24 -42 51q-15 29 -15 63t15 63q18 31 42 52q17 12 22 15q-2 26 -2 40t1 21q-5 2 -16 11q-27 22 -45 52q-17 32 -17 65t17 65q17 31 45 53q28 23 66 36q35 13 82 13q36 0 75 -11q37 15 82 20zM309 340q-27 9 -59 9q-34 0 -59 -9q-27 -10 -45 -24q-20 -15 -27 -31 q-8 -18 -8 -32q0 -16 8 -30q8 -16 26 -31q18 -14 46 -24q25 -9 59 -9q32 0 59 9q28 10 46 24q18 15 26 31q8 13 8 30q0 14 -8 32q-7 13 -26 31q-18 14 -46 24zM288 16q-24 9 -52 9q-30 0 -53 -9q-28 -12 -40 -22q-13 -11 -25 -29q-7 -19 -7 -31q0 -15 7 -30q8 -16 24 -29 q16 -12 41 -22q23 -9 53 -9q28 0 52 9q26 10 41 22t24 29q7 13 7 30q0 18 -7 31q-9 14 -24 29q-16 13 -41 22zM173 99v-11q8 3 25 5q-4 1 -12.5 2.5t-12.5 3.5z" />
<glyph unicode="h" horiz-adv-x="431" d="M216 421q34 0 68 -14q29 -12 56 -38q25 -26 37 -55q14 -34 14 -68v-245h-71v245q0 18 -8 40q-8 19 -22 33q-15 15 -34 23q-22 8 -40 8q-19 0 -41 -8q-21 -8 -33 -23q-15 -12 -23 -33q-8 -22 -8 -40v-245h-71v630h71v-246q47 36 105 36z" />
<glyph unicode="i" horiz-adv-x="149" d="M109 480h-69v69h69v-69zM109 1h-69v419h69v-419z" />
<glyph unicode="j" horiz-adv-x="407" d="M367 480h-69v69h69v-69zM298 15v405h69v-405q0 -68 -48.5 -116.5t-116.5 -48.5q-59 0 -104.5 37t-57.5 93h71q11 -27 36 -44t55 -17q40 0 68 28t28 68z" />
<glyph unicode="k" horiz-adv-x="392" d="M111 284l203 137l38 -57l-168 -114l168 -249h-83l-142 211l-16 -11v-200h-71v629h71v-346z" />
<glyph unicode="l" horiz-adv-x="150" d="M110 1h-70v630h70v-630z" />
<glyph unicode="m" horiz-adv-x="711" d="M496 421q32 0 68 -14q32 -14 55 -38q18 -17 38 -55q14 -34 14 -68v-245h-71v245q0 18 -8 40q-11 23 -23 33q-14 16 -33 23q-22 8 -40 8q-20 0 -41 -8q-19 -8 -34 -23q-14 -14 -22 -33q-8 -18 -8 -40v-245h-71v245q0 18 -8 40q-11 23 -23 33q-14 16 -33 23q-22 8 -40 8 q-20 0 -41 -8q-19 -8 -34 -23q-14 -14 -22 -33q-8 -18 -8 -40v-245h-71v420h71v-36q47 36 105 36q41 0 79 -20q36 -21 61 -51q24 32 60 51q38 20 80 20z" />
<glyph unicode="n" horiz-adv-x="430" d="M215 421q34 0 68 -14q32 -14 55 -38q24 -23 38 -55q14 -34 14 -68v-245h-70v245q0 20 -9 40q-8 19 -22 33q-14 15 -34 23q-22 8 -40 8q-19 0 -41 -8q-19 -8 -34 -23q-14 -14 -22 -33q-8 -22 -8 -40v-245h-70v420h70v-36q46 36 105 36z" />
<glyph unicode="o" d="M250 420q87 0 148.5 -61.5t61.5 -149.5q0 -87 -61.5 -148t-148.5 -61t-148.5 61t-61.5 148q0 88 61.5 149.5t148.5 61.5zM250 69q58 0 99 41t41 99t-41 99t-99 41t-99 -41t-41 -99t41 -99t99 -41z" />
<glyph unicode="p" horiz-adv-x="477" d="M227 420q40 0 82 -17q38 -16 67 -45q28 -28 45 -67q16 -35 16 -82t-16 -82q-17 -37 -45 -66q-29 -29 -67 -45q-36 -16 -82 -16q-47 0 -82 16l-15 8q-14 7 -20 12v-216h-70v600h70v-36q14 10 35 19q40 17 82 17zM227 69q27 0 55 11q25 11 44 30t30 44q11 28 11 55 q0 26 -11 54q-10 25 -30 45q-19 19 -44 30q-28 11 -55 11q-26 0 -54 -11q-25 -10 -45 -30q-12 -12 -18 -23v-152q6 -11 18 -23q20 -20 45 -30q28 -11 54 -11z" />
<glyph unicode="q" horiz-adv-x="478" d="M250 420q42 0 82 -17q20 -8 36 -19v36h70v-600h-70v216q-19 -12 -36 -20q-35 -16 -82 -16q-46 0 -81 16q-39 17 -67 45q-28 29 -45 66q-17 40 -17 82t17 82q17 39 45 67t67 45q40 17 81 17zM250 69q27 0 55 11q25 11 44 30q12 12 19 23v152q-3 3 -9 11t-10 12 q-19 19 -44 30q-28 11 -55 11q-26 0 -54 -11q-26 -10 -45 -30t-30 -45q-11 -28 -11 -54q0 -27 11 -55q11 -25 30 -44q19 -20 45 -30q28 -11 54 -11z" />
<glyph unicode="r" horiz-adv-x="333" d="M263 338q-24 11 -49 11q-42 0 -73 -30.5t-31 -73.5v-245h-70v420h70v-36q45 36 104 36q38 0 79 -19z" />
<glyph unicode="s" horiz-adv-x="374" d="M192 246q64 -8 104.5 -49.5t34.5 -92.5q-6 -50 -56.5 -79t-115.5 -21q-69 6 -114 56l51 47q22 -28 73 -36q36 -4 62.5 8.5t28.5 34.5q4 21 -19.5 39.5t-59.5 23.5q-64 8 -104 49t-34 91t56 80t114 22q78 -12 115 -58l-52 -48q-21 30 -71 35q-35 6 -63 -6t-31 -33 q-3 -23 21 -41t60 -22z" />
<glyph unicode="t" horiz-adv-x="318" d="M278 79v-69q-24 -9 -50 -9q-27 0 -55 11q-26 11 -44 30q-18 18 -30 44q-11 28 -11 55v209h-48v71h48v210h71v-210h64v-71h-64v-209q0 -27 20 -50q21 -21 49 -21q26 0 50 9z" />
<glyph unicode="u" horiz-adv-x="431" d="M214 0q-72 0 -123 51.5t-51 123.5v245h71v-245q0 -44 30 -75t73 -31q45 0 75.5 30.5t30.5 75.5v245h71v-420h-71v35q-47 -35 -106 -35z" />
<glyph unicode="v" horiz-adv-x="505" d="M116 421l136 -322l137 322h76l-177 -420h-71l-177 420h76z" />
<glyph unicode="w" horiz-adv-x="703" d="M388 421l101 -310l101 310h73l-136 -420h-76l-99 307l-100 -307h-76l-136 420h73l101 -310l101 310h73z" />
<glyph unicode="x" horiz-adv-x="494" d="M129 421l118 -154l119 154h88l-162 -211l162 -209h-88l-119 153l-118 -153h-89l162 209l-162 211h89z" />
<glyph unicode="y" horiz-adv-x="430" d="M390 420v-395q0 -39 -13 -68q-13 -32 -37 -56q-28 -26 -56 -37q-34 -14 -69 -14q-33 0 -69 14q-29 12 -55 37q-24 24 -37 56l65 27q10 -22 22 -34q18 -16 33 -23q22 -8 41 -8q20 0 41 8q19 9 33 23t23 34q8 15 8 41v10q-24 -17 -47 -26q-27 -9 -58 -9q-33 0 -69 14 q-29 12 -55 37q-24 24 -37 56q-14 34 -14 68v245h70v-245q0 -19 8 -41q9 -20 23 -34q18 -16 33 -23q22 -8 41 -8q20 0 41 8q19 9 33 23t23 34q8 15 8 41v245h70z" />
<glyph unicode="z" horiz-adv-x="430" d="M390 0h-350l223 349h-222v71h349l-222 -351h222v-69z" />
<glyph unicode="{" horiz-adv-x="234" d="M54 104v142q0 14 -10 24t-24 10v70q14 0 24 10t10 24v142q0 44 30 74t74 30h36v-70h-36q-14 0 -24 -10t-10 -24v-142q0 -40 -26 -69q26 -31 26 -69v-142q0 -14 10 -24t24 -10h36v-63v-7h-36q-44 0 -74 30.5t-30 73.5z" />
<glyph unicode="|" horiz-adv-x="150" d="M110 700v-771h-70v771h70z" />
<glyph unicode="}" horiz-adv-x="234" d="M180 246v-142q0 -43 -30 -73.5t-73 -30.5h-37v7v63h37q14 0 23.5 10t9.5 24v142q0 38 26 69q-26 29 -26 69v142q0 14 -9.5 24t-23.5 10h-37v70h37q43 0 73 -30t30 -74v-142q0 -14 10 -24t24 -10v-70q-14 0 -24 -10t-10 -24z" />
<glyph unicode="~" horiz-adv-x="453" d="M247 308q18 -14 40 -13t38.5 8.5t29.5 16.5l13 8l45 -49q-17 -14 -38.5 -25.5t-50 -20t-60 -4.5t-57.5 24q-15 10 -32.5 12t-31.5 -2.5t-27.5 -12t-20 -12.5t-9.5 -8l-46 49q17 15 38.5 27t49.5 21t59.5 5t59.5 -24z" />
<glyph unicode="&#xa1;" horiz-adv-x="149" d="M109 480h-69v69h69v-69zM109 -81h-69v501h69v-501z" />
<glyph unicode="&#xa2;" horiz-adv-x="461" d="M268 71q58 4 96 56l57 -41q-54 -78 -153 -86v-55h-69v61q-69 18 -114 74t-45 128q0 74 44.5 129t114.5 73v60h69v-53q100 -8 153 -87l-57 -41q-38 53 -96 57v-275zM111 208q0 -44 24 -79t64 -50v259q-40 -15 -64 -50.5t-24 -79.5z" />
<glyph unicode="&#xa3;" horiz-adv-x="498" d="M103 348v70h53l16 87q4 27 18 50q19 33 52 52t72 19q59 0 101.5 -41.5t42.5 -100.5h-70q-1 30 -22.5 51t-51.5 21q-27 0 -47.5 -17.5t-25.5 -43.5v-7h-1l-12 -70h167v-70h-179l-50 -278h292v-70h-418v70h54l50 278h-41z" />
<glyph unicode="&#xa4;" horiz-adv-x="352" d="M175 441q34 0 62 -16l25 26l50 -50l-26 -25q16 -28 16 -61t-16 -61l26 -26l-50 -49l-25 25q-29 -16 -62 -16t-61 16l-25 -25l-49 49l25 26q-15 27 -15 61t15 61l-25 25l49 50l25 -25q27 15 61 15zM232 315q0 23 -17 39.5t-40 16.5t-39 -16t-16 -40q0 -25 16 -41t39 -16 t40 17t17 40z" />
<glyph unicode="&#xa5;" horiz-adv-x="478" d="M40 372h144l-144 258h80l119 -214l119 214h80l-144 -258h144v-71h-164v-39h164v-70h-164v-191h-70v191h-164v70h164v39h-164v71z" />
<glyph unicode="&#xa6;" horiz-adv-x="150" d="M110 280v-351h-70v351h70zM110 700v-350h-70v350h70z" />
<glyph unicode="&#xa7;" horiz-adv-x="295" d="M108 315q0 -17 11.5 -28t28.5 -11q16 0 27.5 11t11.5 28t-11.5 28t-27.5 11q-17 0 -28.5 -11t-11.5 -28zM69 388q-29 32 -29 74q0 44 31.5 75.5t76.5 31.5q44 0 75.5 -31.5t31.5 -75.5v-10h-68v10q0 16 -11.5 27.5t-27.5 11.5q-17 0 -28.5 -11.5t-11.5 -27.5 q0 -17 11.5 -28t28.5 -11q44 0 75.5 -32t31.5 -76t-29 -73q29 -32 29 -74q0 -44 -31.5 -76t-75.5 -32q-45 0 -76.5 32t-31.5 76v10h68v-10q0 -16 11.5 -27.5t28.5 -11.5q16 0 27.5 11.5t11.5 27.5q0 17 -11.5 28t-27.5 11q-45 0 -76.5 31.5t-31.5 76.5q0 44 29 73z" />
<glyph unicode="&#xa8;" horiz-adv-x="226" d="M40 630h48v-48h-48v48zM138 630h48v-48h-48v48z" />
<glyph unicode="&#xa9;" horiz-adv-x="710" d="M40 315q0 130 92.5 222.5t222.5 92.5t222.5 -92.5t92.5 -222.5t-92.5 -222.5t-222.5 -92.5q-131 0 -223 92t-92 223zM157 315q0 82 58 140t140 58q45 0 80 -16l-18 -41q-26 13 -62 13q-64 0 -109 -45t-45 -109t45 -109t109 -45q39 0 71 17l20 -39q-41 -22 -91 -22 q-82 0 -140 58t-58 140zM86 315q0 -112 78.5 -190.5t190.5 -78.5t191 78.5t79 190.5t-79 191t-191 79t-190.5 -79t-78.5 -191z" />
<glyph unicode="&#xaa;" horiz-adv-x="366" d="M40 306v29h266v-29h-266zM235 432v-1v72q-5 -4 -16 -7q-19 -7 -43 -9q-26 0 -45 -12q-20 -11 -19 -29q2 -16 21 -27q21 -11 47 -9q16 0 31 6q12 4 24 16zM123 567q-2 -1 -7 -8l-36 26q8 9 12 13q16 16 31 22q19 10 41 11h7q28 -2 41 -9l2 -1q19 -9 33 -23q8 -7 23 -34 q9 -21 9 -43v-154h-44v11q-3 -1 -7 -3q-24 -9 -47 -10q-25 0 -44 5q-16 5 -35 17q-15 10 -25 26q-9 15 -9 31q-1 15 7 33q7 15 21 27q15 12 34 19q24 8 43 8q27 2 45 14q6 3 9 6q-2 5 -11 16q-9 9 -21 14q-10 5 -25 5h-1q-13 0 -25 -5t-21 -14z" />
<glyph unicode="&#xab;" horiz-adv-x="397" d="M357 229l-50 -50l-136 136l136 136l50 -49l-87 -87zM226 229l-50 -50l-136 136l136 136l50 -49l-87 -87z" />
<glyph unicode="&#xac;" horiz-adv-x="395" d="M355 316v-199h-70v129h-245v70h315z" />
<glyph unicode="&#xad;" horiz-adv-x="478" d="M40 316h398v-71h-398v71z" />
<glyph unicode="&#xae;" horiz-adv-x="710" d="M412 469h-118v-87h118q18 0 30.5 13t12.5 31q0 17 -12.5 30t-30.5 13zM86 315q0 -112 79 -190.5t190 -78.5q81 0 149 44l-166 248h-44v-221h-45v221v175h163q36 0 62 -25.5t26 -61.5q0 -37 -26 -62.5t-62 -25.5h-20l147 -220q86 80 86 197q0 112 -79 191t-191 79 q-111 0 -190 -79t-79 -191zM40 315q0 130 92.5 222.5t222.5 92.5t222.5 -92.5t92.5 -222.5t-92.5 -222.5t-222.5 -92.5t-222.5 92.5t-92.5 222.5z" />
<glyph unicode="&#xaf;" horiz-adv-x="478" d="M40 630h398v-71h-398v71z" />
<glyph unicode="&#xb0;" horiz-adv-x="366" d="M40 498q0 55 39 94t94 39t94 -39t39 -94t-39 -94t-94 -39t-94 38.5t-39 94.5zM85 498q0 -37 25.5 -62.5t62.5 -25.5q36 0 62 25.5t26 62.5q0 36 -26 62t-62 26q-37 0 -62.5 -26t-25.5 -62z" />
<glyph unicode="&#xb1;" horiz-adv-x="394" d="M40 405h122v122h70v-122h122v-70h-122v-123h-70v123h-122v70zM40 173h314v-70h-314v70z" />
<glyph unicode="&#xb2;" horiz-adv-x="249" d="M40 344l107 193l1 2q5 8 5 18q0 16 -11 27t-27 11t-27 -11t-11 -27h-37q0 31 22 52.5t53 21.5q43 0 64 -37q10 -17 10 -37q0 -19 -9 -35v-1q-1 -1 -1 -2l-99 -177h109v-36h-149v36v2z" />
<glyph unicode="&#xb3;" horiz-adv-x="313" d="M145 341q15 0 28 6t23 16t15 23q6 12 6 28q0 14 -6 28q-4 12 -15 23q-12 10 -23 15q-13 6 -28 6v36q15 1 25.5 11.5t10.5 24.5q0 15 -10.5 25.5t-25.5 10.5q-28 0 -35 -27h-37q3 27 23.5 45.5t48.5 18.5q30 0 51 -21.5t21 -51.5q0 -29 -19 -49q11 -6 23 -18 q15 -15 24 -35q8 -22 8 -42q0 -21 -8 -43q-9 -19 -24 -34q-14 -14 -34 -23q-22 -8 -42 -8t-42 8q-16 7 -35 23q-14 14 -23 34l-5 15h38q8 -17 16 -23q6 -8 23 -16q12 -6 28 -6z" />
<glyph unicode="&#xb4;" horiz-adv-x="222" d="M182 576l-97 -81l-45 53l97 82z" />
<glyph unicode="&#xb5;" horiz-adv-x="431" d="M214 0q-19 0 -35 4q-22 6 -33 10q-23 13 -29 17l-6 3v-214h-71v600h71v-245q0 -7 2 -21q1 -4 3 -10t3 -10q3 -9 10 -18q2 -4 12 -16q13 -10 16 -12q7 -6 17 -10q7 -4 19 -6q11 -3 21 -3q20 0 42 8q18 7 34 23q15 15 23 34q7 17 7 41v245h71v-420h-71v35q-7 -5 -23 -15 q-21 -9 -26 -11q-13 -5 -27 -6q-15 -3 -30 -3z" />
<glyph unicode="&#xb6;" horiz-adv-x="478" d="M368 352v279h70v-1v-278v-351h-70v351zM245 1v351h-65q-58 0 -99 40.5t-41 98.5t41 99t99 41h135v-1v-278v-351h-70z" />
<glyph unicode="&#xb7;" horiz-adv-x="149" d="M109 281h-69v69h69v-69z" />
<glyph unicode="&#xb8;" horiz-adv-x="211" d="M81 0h40v-25q22 -6 36 -24.5t14 -42.5q0 -29 -20.5 -49.5t-49.5 -20.5q-41 0 -61 35l34 21q7 -16 27 -16q12 0 21 8.5t9 21.5t-9 22t-21 9t-20 -8v69z" />
<glyph unicode="&#xb9;" horiz-adv-x="169" d="M109 306h-36v274l-8 -7l-25 25l32 33h37v-325z" />
<glyph unicode="&#xba;" horiz-adv-x="366" d="M40 498q0 55 39 94t94 39t94 -39t39 -94q0 -56 -39 -94.5t-94 -38.5t-94 39t-39 94zM40 306v29h266v-29h-266zM70 498q0 -43 30 -73t73 -30t73.5 30t30.5 73t-30.5 73t-73.5 30t-73 -30t-30 -73z" />
<glyph unicode="&#xbb;" horiz-adv-x="396" d="M170 229l87 86l-87 87l50 49l136 -136l-136 -136zM40 229l86 86l-86 87l49 49l136 -136l-136 -136z" />
<glyph unicode="&#xbc;" horiz-adv-x="742" d="M119 253h-42v319l-8 -9l-29 30l37 38h42v-378zM660 631l-529 -630h-91l528 630h92zM702 254v-43h-42v-210h-42v210h-108h-17v44l95 94l30 30h42v-125h42zM552 254h66v65z" />
<glyph unicode="&#xbd;" horiz-adv-x="723" d="M510 46l125 224l1 2q5 12 5 20q0 19 -13 32t-31 13q-19 0 -32 -13t-13 -32h-42q0 36 25.5 61.5t61.5 25.5q48 0 74 -43q12 -20 12 -44q0 -21 -10 -40q-1 0 -1 -1t-1 -2l-114 -206h126v-42h-173v42v3zM120 631v-378h-42v319l-8 -9l-30 30l38 38h42zM569 631h91l-529 -630 h-91z" />
<glyph unicode="&#xbe;" horiz-adv-x="792" d="M162 294q19 0 33 7q15 5 26 18q13 11 18 26q7 14 7 33q0 20 -7 33q-6 15 -18 27q-11 11 -26 18q-17 6 -33 6v43q17 0 29.5 12t12.5 29t-12.5 29.5t-29.5 12.5q-33 0 -41 -32h-43q4 32 28 53.5t56 21.5q35 0 59.5 -25t24.5 -60q0 -34 -23 -57q14 -7 28 -21q17 -20 27 -40 q10 -21 10 -50t-10 -49t-27 -40q-17 -17 -40 -26q-21 -10 -49 -10q-29 0 -49 10q-23 9 -40 26q-18 18 -27 40q-4 9 -6 17h44l1 -1q5 -15 18 -26q11 -13 26 -18q13 -7 33 -7zM710 254h42v-43h-42v-210h-42v210h-107h-17v44l94 94l30 30h42v-125zM668 319l-65 -65h65v65z M619 631h91l-528 -630h-92z" />
<glyph unicode="&#xbf;" horiz-adv-x="400" d="M235 480h-69v69h69v-69zM207 420q25 0 46 -9t38 -26q14 -14 25 -38q9 -21 9 -46t-9 -46q-10 -22 -25 -38q-14 -14 -38 -25q-21 -10 -46 -10q-24 0 -38 -7q-18 -8 -31 -21t-21 -31q-7 -15 -7 -38t7 -37q8 -21 21 -31q13 -13 31 -21q19 -8 38 -8q18 0 37 8q21 8 31 21 q13 10 21 31l64 -28q-12 -30 -35 -53t-53 -36q-34 -13 -65 -13q-35 0 -65 13q-31 14 -53 36q-25 23 -36 53q-13 29 -13 65q0 38 13 65q11 31 36 53q22 22 53 36q27 13 65 13q10 0 19 4q12 7 15 11q7 5 11 15q3 9 3 19t-3 19q-4 9 -11 16t-15 10q-7 4 -19 4t-19 -4 q-9 -3 -16 -10q-7 -8 -10 -16l-65 27q11 24 25 38q17 17 38 26t46 9h1z" />
<glyph unicode="&#xc0;" horiz-adv-x="625" d="M390 310l-78 175l-77 -175h155zM312 657l293 -657h-77l-107 240h-218l-106 -240h-77zM241 749l45 53l98 -81l-45 -54z" />
<glyph unicode="&#xc1;" horiz-adv-x="624" d="M390 310h-156l78 175zM312 657l-292 -657h76l107 240h218l107 -240h76zM383 749l-97 -82l-45 54l97 81z" />
<glyph unicode="&#xc2;" horiz-adv-x="624" d="M390 310l-78 175l-78 -175h156zM312 657l292 -657h-76l-107 240h-218l-107 -240h-76zM312 802l97 -81l-45 -54l-52 44l-53 -44l-45 54z" />
<glyph unicode="&#xc3;" horiz-adv-x="625" d="M390 310h-155l78 175zM313 657l-293 -657h77l107 240h218l106 -240h77zM328 712q14 -11 31 -10t29.5 7t22.5 13l10 6l35 -38q-13 -11 -29.5 -19.5t-38.5 -15.5t-46 -3.5t-45 18.5q-17 9 -31 10t-29.5 -7t-22.5 -13t-10 -8l-35 38q18 16 41.5 27t56.5 14t61 -19z" />
<glyph unicode="&#xc4;" horiz-adv-x="624" d="M390 310l-78 175l-78 -175h156zM312 657l292 -657h-76l-107 240h-218l-107 -240h-76zM239 726h48v-49h-48v49zM337 726h48v-49h-48v49z" />
<glyph unicode="&#xc5;" horiz-adv-x="624" d="M390 310h-156l78 175zM312 657l-292 -657h76l107 240h218l107 -240h76zM342 748q0 12 -9 21t-21 9t-21 -8.5t-9 -21.5q0 -14 9 -22.5t21 -8.5t21 9t9 22zM312 818q29 0 49.5 -20.5t20.5 -49.5q0 -30 -20.5 -50.5t-49.5 -20.5t-49.5 20.5t-20.5 50.5q0 29 20.5 49.5 t49.5 20.5z" />
<glyph unicode="&#xc6;" horiz-adv-x="738" d="M300 311v148l-66 -148h66zM370 422h122v-70h-122v-281h328v-70h-398v240h-97l-107 -240h-76l280 630h398v-71h-328v-138z" />
<glyph unicode="&#xc7;" horiz-adv-x="540" d="M40 315q0 130 92.5 222.5t222.5 92.5q65 0 127 -27l-28 -64q-50 21 -99 21q-101 0 -173 -72t-72 -173q0 -102 72 -173.5t173 -71.5q57 0 113 27l32 -62q-56 -30 -124 -35v-24q22 -7 36 -25.5t14 -42.5q0 -29 -21 -49.5t-50 -20.5q-41 0 -60 36l34 20q7 -16 26 -16 q13 0 22 9t9 21q0 13 -9 22t-22 9q-11 0 -19 -8v69q-124 8 -210 99t-86 216z" />
<glyph unicode="&#xc8;" horiz-adv-x="477" d="M110 422h122v-71h-122v-280h327v-71h-397v630h397v-70h-327v-138zM167 722l45 54l98 -82l-45 -54z" />
<glyph unicode="&#xc9;" horiz-adv-x="478" d="M110 422v138h328v70h-398v-630h398v71h-328v280h122v71h-122zM310 722l-97 -82l-45 54l97 82z" />
<glyph unicode="&#xca;" horiz-adv-x="477" d="M110 422h122v-71h-122v-280h327v-71h-397v630h397v-70h-327v-138zM239 776l97 -82l-45 -54l-52 44l-53 -44l-45 54z" />
<glyph unicode="&#xcb;" horiz-adv-x="477" d="M110 422h122v-71h-122v-280h327v-71h-397v630h397v-70h-327v-138zM165 699h49v-48h-49v48zM263 699h49v-48h-49v48z" />
<glyph unicode="&#xcc;" horiz-adv-x="223" d="M40 722l45 54l98 -82l-45 -53zM42 631h140v-70h-35v-490h35v-70h-140v70h35v490h-35v70z" />
<glyph unicode="&#xcd;" horiz-adv-x="222" d="M41 631v-70h35v-490h-35v-70h140v70h-35v490h35v70h-140zM182 722l-97 -81l-45 53l97 82z" />
<glyph unicode="&#xce;" horiz-adv-x="275" d="M67 631h140v-70h-35v-490h35v-70h-140v70h35v490h-35v70zM137 776l98 -82l-45 -53l-53 44l-52 -44l-45 53z" />
<glyph unicode="&#xcf;" horiz-adv-x="227" d="M43 631h140v-70h-35v-490h35v-70h-140v70h35v490h-35v70zM40 699h49v-48h-49v48zM138 699h49v-48h-49v48z" />
<glyph unicode="&#xd0;" horiz-adv-x="615" d="M111 351v279h149q130 0 222.5 -92t92.5 -222t-92.5 -222.5t-222.5 -92.5h-149v279h-71v71h71zM260 559h-78v-208h71v-71h-71v-208h78q102 0 173 71t71 173q0 101 -71 172t-173 71z" />
<glyph unicode="&#xd1;" horiz-adv-x="595" d="M485 630v-527l-360 527h-15h-70v-630h70v527l360 -527h85v630h-70zM313 712q14 -11 31 -10t29.5 7t22.5 13l10 6l35 -38q-13 -11 -29.5 -19.5t-38.5 -15.5t-46 -3.5t-45 18.5q-17 9 -31 10t-29.5 -7t-22.5 -13t-10 -8l-35 38q18 16 41.5 27t56.5 14t61 -19z" />
<glyph unicode="&#xd2;" horiz-adv-x="710" d="M40 315q0 130 92.5 222.5t222.5 92.5t222.5 -92.5t92.5 -222.5t-92.5 -222.5t-222.5 -92.5q-131 0 -223 92t-92 223zM381 640l-97 82l45 53l97 -81zM110 315q0 -101 72 -173t173 -72t173 72t72 173t-72 173t-173 72t-173 -72t-72 -173z" />
<glyph unicode="&#xd3;" horiz-adv-x="710" d="M40 315q0 -131 92 -223t223 -92q130 0 222.5 92.5t92.5 222.5t-92.5 222.5t-222.5 92.5t-222.5 -92.5t-92.5 -222.5zM426 722l-97 -82l-45 54l97 81zM110 315q0 101 72 173t173 72t173 -72t72 -173t-72 -173t-173 -72t-173 72t-72 173z" />
<glyph unicode="&#xd4;" horiz-adv-x="710" d="M40 315q0 130 92.5 222.5t222.5 92.5t222.5 -92.5t92.5 -222.5t-92.5 -222.5t-222.5 -92.5q-131 0 -223 92t-92 223zM257 694l98 81l97 -81l-45 -54l-52 44l-53 -44zM110 315q0 -101 72 -173t173 -72t173 72t72 173t-72 173t-173 72t-173 -72t-72 -173z" />
<glyph unicode="&#xd5;" horiz-adv-x="710" d="M40 315q0 -131 92 -223t223 -92q130 0 222.5 92.5t92.5 222.5t-92.5 222.5t-222.5 92.5t-222.5 -92.5t-92.5 -222.5zM370 712q14 -11 31 -10t29.5 7t22.5 13l10 6l35 -38q-13 -11 -29.5 -19.5t-38.5 -15.5t-46 -3.5t-45 18.5q-17 9 -31 10t-29.5 -7t-22.5 -13t-10 -8 l-35 38q18 16 41.5 27t56.5 14t61 -19zM110 315q0 101 72 173t173 72t173 -72t72 -173t-72 -173t-173 -72t-173 72t-72 173z" />
<glyph unicode="&#xd6;" horiz-adv-x="710" d="M40 315q0 130 92.5 222.5t222.5 92.5t222.5 -92.5t92.5 -222.5t-92.5 -222.5t-222.5 -92.5q-131 0 -223 92t-92 223zM282 650v49h48v-49h-48zM380 650v49h48v-49h-48zM110 315q0 -101 72 -173t173 -72t173 72t72 173t-72 173t-173 72t-173 -72t-72 -173z" />
<glyph unicode="&#xd7;" horiz-adv-x="352" d="M40 229l86 86l-86 87l49 49l87 -86l86 86l50 -49l-87 -87l87 -86l-50 -50l-86 87l-87 -87z" />
<glyph unicode="&#xd8;" horiz-adv-x="710" d="M551 462l-343 -343q65 -49 147 -49q101 0 173 72t72 173q0 82 -49 147zM110 315q0 -84 48 -147l343 343q-65 49 -146 49q-102 0 -173.5 -72t-71.5 -173zM40 315q0 130 92.5 222.5t222.5 92.5q108 0 196 -69l46 46l50 -50l-46 -45q69 -88 69 -197q0 -130 -92.5 -222.5 t-222.5 -92.5q-109 0 -197 69l-46 -46l-49 49l46 46q-69 86 -69 197z" />
<glyph unicode="&#xd9;" horiz-adv-x="543" d="M40 234v396h71v-396q0 -68 47 -115t114 -47q66 0 113 47t47 115v396h71v-396q0 -96 -67.5 -164.5t-163.5 -68.5t-164 68.5t-68 164.5zM298 640l-98 82l45 54l98 -82z" />
<glyph unicode="&#xda;" horiz-adv-x="543" d="M40 630v-396q0 -96 67.5 -164.5t163.5 -68.5q95 0 163.5 68.5t68.5 164.5v396h-71v-396q0 -68 -47 -115t-114 -47q-66 0 -113 47t-47 115v396h-71zM342 722l-97 -82l-45 54l97 82z" />
<glyph unicode="&#xdb;" horiz-adv-x="543" d="M40 234v396h71v-396q0 -68 47 -115t113 -47q67 0 114 47t47 115v396h71v-396q0 -96 -68.5 -164.5t-163.5 -68.5q-96 0 -163.5 68.5t-67.5 164.5zM174 694l97 82l98 -82l-45 -54l-53 44l-52 -44z" />
<glyph unicode="&#xdc;" horiz-adv-x="543" d="M198 699h48v-48h-48v48zM296 699h48v-48h-48v48zM40 234v396h71v-396q0 -68 47 -115t113 -47q67 0 114 47t47 115v396h71v-396q0 -96 -68.5 -164.5t-163.5 -68.5q-96 0 -163.5 68.5t-67.5 164.5z" />
<glyph unicode="&#xdd;" horiz-adv-x="478" d="M120 630h-80l164 -295v-334h70v334l164 295h-80l-119 -214zM310 722l-97 -82l-45 54l97 82z" />
<glyph unicode="&#xde;" horiz-adv-x="472" d="M111 351v-280h110q58 0 99 41t41 99t-41 99t-99 41h-110zM110 0v-180h-70v810h70v-208h111q88 0 149.5 -62t61.5 -149q0 -88 -61.5 -149.5t-149.5 -61.5h-111z" />
<glyph unicode="&#xdf;" horiz-adv-x="472" d="M221 351h-39v71h45q28 0 48 20t20 49q0 28 -20 48t-48 20h-116v-739h-71v809v1h187q58 0 98.5 -40.5t40.5 -98.5v-1q0 -55 -39 -96q49 -28 77 -76.5t28 -106.5q0 -88 -62 -149.5t-149 -61.5h-39v71h39q58 0 99 41t41 99t-41 99t-99 41z" />
<glyph unicode="&#xe0;" horiz-adv-x="417" d="M307 107v-1v114q-16 -8 -25 -11q-33 -12 -68 -13q-43 -1 -72 -20q-32 -20 -31 -47q2 -27 34 -43q31 -16 74 -13q26 0 50 9q22 7 38 25zM128 322q-2 -2 -10 -12l-58 41q11 15 19 21q21 22 50 35q30 15 65 17h1h1h1h1h1h1h2h1h1h1h1q34 -1 64 -14h1v-1h1h1l1 -1h1h1v-1 q25 -12 50 -35q25 -26 37 -55q14 -27 14 -68v-245h-70v17l-4 -1q-4 -2 -7 -4q-36 -14 -76 -15q-33 -1 -68 8q-33 9 -57 27q-24 17 -39 41t-16 50q0 27 12 52q15 28 34 43q20 19 54 31q35 12 68 13q43 1 73 21q3 2 14 10q-5 11 -19 25q-12 15 -33 23q-22 8 -40 8h-1 q-18 0 -40 -8q-19 -8 -34 -23zM235 434l-97 82l45 53l97 -82z" />
<glyph unicode="&#xe1;" horiz-adv-x="418" d="M308 102l-1 1q-16 -18 -38 -25q-23 -9 -50 -9q-42 -3 -73 13q-33 16 -35 43q0 29 31 47q31 19 72 20q35 1 68 13q19 7 26 11v-114zM129 318q12 15 33 23q22 8 41 8q18 0 40 -8q19 -8 34 -23q9 -9 18 -25q-11 -8 -14 -10q-30 -19 -72 -21q-33 -1 -68 -13q-34 -12 -54 -31 q-24 -19 -35 -43q-12 -27 -11 -52q0 -25 15 -50q15 -24 39 -41q24 -18 57 -27q36 -9 69 -8q41 1 75 15q4 2 12 5v-17h70v245q0 34 -14 68q-20 38 -38 55q-22 22 -50 35v1h-1h-1v1h-1h-1v1h-1q-28 12 -64 14h-1h-1h-1h-1h-2h-1h-1h-1h-1h-1h-1h-1q-35 -2 -65 -17 q-29 -13 -50 -35q-13 -13 -18 -21l57 -41q6 9 11 12zM280 516l-97 -82l-45 53l97 82z" />
<glyph unicode="&#xe2;" horiz-adv-x="417" d="M209 569l97 -82l-45 -53l-52 44l-53 -44l-45 53zM307 102v-1v114q-17 -9 -26 -11q-33 -12 -68 -13q-41 -1 -72 -20t-30 -47q2 -27 34 -43q31 -16 73 -13q27 0 51 9q22 7 38 25zM128 317q-2 -2 -10 -12l-58 41q11 15 19 21q20 21 49 35q31 15 66 17h1h1h1h1h1h1h2h1h1h1h1 q34 -1 64 -14h1v-1h1h1l1 -1h1l1 -1q25 -12 50 -35q25 -26 37 -55q14 -34 14 -68v-245h-70v17q-7 -2 -11 -5q-36 -14 -76 -15q-33 -1 -69 8q-32 9 -56 27q-26 17 -39 41q-15 24 -16 50q0 29 12 52q15 28 34 43q20 19 54 31q35 12 68 13q44 1 72 21q2 1 14 10q-9 16 -18 25 q-12 15 -33 23q-22 8 -40 8h-1q-18 0 -40 -8q-20 -8 -34 -23z" />
<glyph unicode="&#xe3;" horiz-adv-x="417" d="M307 102v1q-19 -19 -38 -25q-24 -9 -51 -9q-42 -3 -73 13q-32 16 -34 43q-1 28 30 47t72 20q35 1 68 13q19 7 26 11v-114zM128 318q12 15 33 23q22 8 41 8t40 -8q20 -8 34 -23q9 -9 18 -25q-12 -9 -14 -10q-30 -19 -72 -21q-33 -1 -68 -13q-34 -12 -54 -31 q-20 -16 -35 -43q-11 -24 -11 -52q1 -26 16 -50q14 -24 38 -41q26 -18 57 -27q36 -9 69 -8q40 1 76 15q4 3 11 5v-17h70v245q0 34 -14 68q-14 32 -38 55q-20 21 -49 35l-1 1h-1h-1v1h-1h-1v1h-1q-30 13 -64 14h-1h-1h-1h-1h-2h-1h-1h-1h-1h-1h-1h-1q-34 -2 -65 -17 q-28 -13 -50 -35q-9 -9 -18 -21l57 -41q1 1 5 5.5t6 6.5zM224 505q14 -11 31 -10t29.5 7t22.5 12l10 7l35 -38q-13 -11 -29.5 -19.5t-38.5 -15.5t-46 -3.5t-45 18.5q-17 9 -31 10t-29.5 -7t-22.5 -13t-10 -8l-35 38q18 16 41.5 27t56.5 14t61 -19z" />
<glyph unicode="&#xe4;" horiz-adv-x="418" d="M136 492h48v-48h-48v48zM234 492h48v-48h-48v48zM307 103l1 -1v114q-7 -4 -26 -11q-33 -12 -68 -13q-43 -1 -72 -20q-32 -20 -31 -47q2 -27 34 -43q31 -16 74 -13q27 0 50 9q22 7 38 25zM129 318q-5 -3 -11 -12l-57 41q7 12 18 21q21 22 50 35q30 15 65 17h1h1h1h1h1h1h1 h2h1h1h1q36 -2 65 -14l1 -1h1h1v-1h1h1v-1q28 -13 50 -35q18 -17 38 -55q14 -34 14 -68v-245h-70v17q-8 -3 -12 -5q-36 -14 -75 -15q-34 -1 -69 8q-33 9 -57 27q-24 17 -39 41q-15 23 -15 50q-1 25 11 52q11 24 35 43q20 19 54 31q35 12 68 13q42 2 72 21q3 2 14 10 q-9 16 -18 25q-15 15 -34 23q-22 8 -40 8h-1q-18 0 -40 -8q-21 -8 -33 -23z" />
<glyph unicode="&#xe5;" horiz-adv-x="417" d="M307 102v1q-19 -19 -38 -25q-24 -9 -51 -9q-42 -3 -73 13q-32 16 -34 43q-1 28 30 47t72 20q35 1 68 13q19 7 26 11v-114zM128 318q12 15 33 23q22 8 41 8t40 -8q20 -8 34 -23q9 -9 18 -25q-12 -9 -14 -10q-30 -19 -72 -21q-33 -1 -68 -13q-34 -12 -54 -31 q-20 -16 -35 -43q-11 -24 -11 -52q1 -26 16 -50q14 -24 38 -41q26 -18 57 -27q36 -9 69 -8q40 1 76 15q4 3 11 5v-17h70v245q0 34 -14 68q-14 32 -38 55q-20 21 -49 35l-1 1h-1h-1v1h-1h-1v1h-1q-30 13 -64 14h-1h-1h-1h-1h-2h-1h-1h-1h-1h-1h-1h-1q-34 -2 -65 -17 q-28 -13 -50 -35q-9 -9 -18 -21l57 -41q1 1 5 5.5t6 6.5zM246 515q0 12 -8.5 21t-21.5 9q-12 0 -21 -8.5t-9 -21.5q0 -14 9 -22.5t21 -8.5q13 0 21.5 9t8.5 22zM216 585q29 0 49.5 -20.5t20.5 -49.5q0 -30 -20.5 -50.5t-49.5 -20.5t-49.5 20.5t-20.5 50.5q0 29 20.5 49.5 t49.5 20.5z" />
<glyph unicode="&#xe6;" horiz-adv-x="763" d="M513 349q-21 0 -47 -8q-26 -10 -40 -22q-19 -15 -31 -33q-12 -20 -18 -41h272q-12 45 -50 74q-37 30 -86 30zM307 102v65q-4 15 -4 42v5q-16 -8 -22 -10q-36 -12 -68 -12q-42 -2 -72 -20q-31 -19 -30 -47q2 -27 34 -43q35 -17 73 -13q27 0 51 9q15 5 38 24zM128 318 q-2 -2 -5.5 -6t-5.5 -6l-57 41q4 3 9 10t9 11q22 22 50 35q31 15 65 17h1h1h1h1h1h1h1h2h1h1h1h1q34 -1 64 -14l1 -1h1h1v-1h1h1v-1h1q29 -14 49 -35q12 -11 23 -28q5 7 16 18q29 29 67 45q40 17 82 17t82 -17q37 -17 66 -45q28 -28 45 -67q17 -40 17 -82q0 -11 -1 -18 q0 -3 -1 -8t-1 -8h-343q6 -24 18 -42q13 -19 31 -34q21 -16 40 -22q21 -8 47 -8q40 0 71 19q32 19 51 52l59 -35q-26 -48 -75 -77q-46 -28 -106 -28q-47 0 -82 16q-30 14 -54 33v-49h-70v17q-2 -1 -5.5 -2t-5.5 -3q-36 -14 -76 -15q-33 -1 -69 8q-31 9 -57 27q-24 17 -38 41 q-15 24 -16 50q0 28 11 52q13 24 35 43q20 19 54 31q35 12 68 13q42 2 72 21q2 1 14 10q-9 16 -18 25q-7 8 -34 23q-21 8 -40 8t-41 -8q-23 -11 -33 -23z" />
<glyph unicode="&#xe7;" horiz-adv-x="461" d="M249 -160q-41 0 -61 35l35 21q7 -16 26 -16q13 0 21.5 8.5t8.5 21.5t-8.5 21.5t-21.5 8.5t-20 -7v68q-35 3 -61 16q-38 17 -67 44q-29 29 -45 66q-16 36 -16 82q0 47 16 83q17 39 45 67q29 29 67 45q35 16 81 16q55 0 98 -24q46 -25 74 -64l-58 -41q-20 26 -49 42 q-28 16 -65 16q-32 0 -55 -11q-25 -11 -44 -30q-19 -18 -30 -44q-11 -28 -11 -55q0 -26 11 -54q10 -25 30 -45q20 -19 44 -30q28 -11 55 -11q36 0 65 17q32 19 49 43l58 -41q-28 -39 -74 -64q-35 -18 -78 -23v-24q22 -6 36 -24.5t14 -42.5q0 -29 -20.5 -49.5t-49.5 -20.5z " />
<glyph unicode="&#xe8;" d="M457 175h-343q5 -20 19 -42q10 -17 30 -34q17 -13 40 -22q26 -8 47 -8q41 0 72 19q30 17 50 52l59 -35q-29 -51 -74 -77q-46 -28 -107 -28q-46 0 -82 16q-38 16 -66 45t-45 66q-17 40 -17 82t17 82q17 39 45 67t66 45q42 17 82 17q42 0 82 -17q39 -17 67 -45t45 -67 q16 -35 16 -82q0 -11 -1 -18q0 -2 -2 -16zM250 349q-21 0 -47 -8q-23 -9 -40 -22q-18 -13 -30 -33q-14 -23 -19 -41h272q-12 46 -49 74q-37 30 -87 30zM277 430l-98 82l45 53l98 -82z" />
<glyph unicode="&#xe9;" d="M457 175h-343q6 -23 18 -42q8 -13 31 -34q21 -16 40 -22q24 -8 47 -8q40 0 71 19q32 20 51 52l59 -35q-26 -48 -75 -77q-46 -28 -106 -28q-47 0 -82 16q-39 17 -67 45q-29 29 -45 66q-16 35 -16 82t16 82q17 39 45 67t67 45q40 17 82 17q40 0 82 -17q38 -17 66 -45 t45 -67q17 -40 17 -82q0 -3 -0.5 -9t-0.5 -9q-2 -14 -2 -16zM250 349q-23 0 -47 -8q-19 -6 -40 -22t-31 -33q-12 -19 -18 -41h272q-12 45 -50 74q-38 30 -86 30zM321 512l-98 -82l-45 53l98 82z" />
<glyph unicode="&#xea;" d="M250 565l97 -82l-45 -53l-52 44l-53 -44l-45 53zM457 175h-343q6 -23 18 -42q13 -19 31 -34q21 -16 40 -22q24 -8 47 -8q40 0 71 19q32 20 51 52l59 -35q-26 -48 -75 -77q-46 -28 -106 -28q-47 0 -82 16q-39 17 -67 45q-29 29 -45 66q-16 35 -16 82t16 82q17 39 45 67 t67 45q40 17 82 17q40 0 82 -17q38 -17 66 -45t45 -67q17 -40 17 -82q0 -3 -0.5 -9t-0.5 -9q-2 -14 -2 -16zM250 349q-23 0 -47 -8q-19 -6 -40 -22q-19 -15 -31 -33q-12 -19 -18 -41h272q-12 45 -50 74q-38 30 -86 30z" />
<glyph unicode="&#xeb;" d="M177 488h48v-48h-48v48zM275 488h48v-48h-48v48zM457 175h-343q6 -23 18 -42q13 -19 31 -34q21 -16 40 -22q24 -8 47 -8q40 0 71 19q32 20 51 52l59 -35q-26 -48 -75 -77q-46 -28 -106 -28q-47 0 -82 16q-39 17 -67 45q-29 29 -45 66q-16 35 -16 82t16 82q17 39 45 67 t67 45q40 17 82 17q40 0 82 -17q38 -17 66 -45t45 -67q17 -40 17 -82q0 -3 -0.5 -9t-0.5 -9q-2 -14 -2 -16zM250 349q-23 0 -47 -8q-19 -6 -40 -22q-19 -15 -31 -33q-12 -19 -18 -41h272q-12 45 -50 74q-38 30 -86 30z" />
<glyph unicode="&#xec;" horiz-adv-x="222" d="M146 0h-69v420h69v-420zM40 511l45 54l97 -82l-45 -53z" />
<glyph unicode="&#xed;" horiz-adv-x="222" d="M145 0v420h-69v-420h69zM182 511l-97 -81l-45 53l97 82z" />
<glyph unicode="&#xee;" horiz-adv-x="275" d="M172 0h-69v420h69v-420zM137 565l98 -82l-45 -53l-53 44l-52 -44l-45 53z" />
<glyph unicode="&#xef;" horiz-adv-x="226" d="M40 488h48v-48h-48v48zM138 488h48v-48h-48v48zM147 0h-69v420h69v-420z" />
<glyph unicode="&#xf0;" d="M250 420q46 0 81 -16q34 -14 59 -37v42v46q0 21 -9 41q-2 8 -5 11l-52 -44l-45 53l45 38q-15 7 -39 7q-23 0 -41 -8l-28 63q30 14 69 14t69 -14q12 -4 27 -14l35 28l44 -52l-29 -25q9 -13 15 -30q14 -34 14 -68v-246q0 -40 -17 -82q-17 -37 -45 -66q-28 -27 -67 -44 q-40 -17 -81 -17q-42 0 -82 17q-38 17 -67 44q-29 29 -45 66q-16 36 -16 82q0 47 16 83q17 39 45 67q29 29 67 45q35 16 82 16zM250 69q26 0 54 11q26 12 45 30q19 20 30 45q11 28 11 54q0 27 -11 55q-11 26 -30 44q-19 20 -45 30q-24 11 -54 11q-32 0 -55 -11 q-25 -11 -44 -30q-19 -18 -30 -44q-11 -28 -11 -55q0 -26 11 -54q11 -25 30 -45q20 -19 44 -30q28 -11 55 -11z" />
<glyph unicode="&#xf1;" horiz-adv-x="430" d="M230 492q14 -11 31 -10t29.5 7t22.5 13l10 6l35 -38q-13 -11 -29.5 -19.5t-38.5 -15.5t-46 -3.5t-45 18.5q-17 9 -31 10t-29.5 -7t-22.5 -13t-10 -8l-35 38q18 16 41.5 27t56.5 14t61 -19zM215 420q41 0 68 -14q34 -15 55 -37q26 -26 38 -56q14 -34 14 -68v-245h-70v245 q0 22 -9 40q-5 13 -22 34q-13 15 -34 22q-18 8 -40 8q-23 0 -41 -8q-20 -7 -34 -22q-17 -21 -22 -34q-8 -21 -8 -40v-245h-70v420h70v-36q46 36 105 36z" />
<glyph unicode="&#xf2;" d="M250 420q40 0 82 -17q39 -17 67 -45t45 -67q16 -35 16 -82t-16 -82q-16 -37 -45 -66q-28 -28 -67 -45q-36 -16 -82 -16t-82 16q-38 16 -66 45t-45 66q-17 40 -17 82t17 82q17 39 45 67t66 45q42 17 82 17zM250 69q27 0 55 11q26 11 44 30q19 19 30 44q11 23 11 55 q0 30 -11 54q-11 25 -30 45q-18 19 -44 30q-28 11 -55 11q-26 0 -54 -11q-26 -10 -45 -30q-18 -20 -30 -45q-11 -28 -11 -54q0 -27 11 -55q11 -24 30 -44t45 -30q28 -11 54 -11zM277 430l-98 82l45 53l98 -82z" />
<glyph unicode="&#xf3;" d="M250 420q40 0 82 -17q39 -17 67 -45t45 -67q16 -35 16 -82t-16 -82q-16 -37 -45 -66q-28 -28 -67 -45q-36 -16 -82 -16t-82 16q-38 16 -66 45t-45 66q-17 40 -17 82t17 82q17 39 45 67t66 45q42 17 82 17zM250 69q27 0 55 11q26 11 44 30q19 19 30 44q11 23 11 55 q0 30 -11 54q-11 25 -30 45q-18 19 -44 30q-28 11 -55 11q-26 0 -54 -11q-26 -10 -45 -30q-18 -20 -30 -45q-11 -28 -11 -54q0 -27 11 -55q11 -24 30 -44t45 -30q28 -11 54 -11zM322 512l-98 -82l-45 53l98 82z" />
<glyph unicode="&#xf4;" d="M250 420q40 0 82 -17q39 -17 67 -45t45 -67q16 -35 16 -82t-16 -82q-16 -37 -45 -66q-28 -28 -67 -45q-36 -16 -82 -16t-82 16q-38 16 -66 45t-45 66q-17 40 -17 82t17 82q17 39 45 67t66 45q42 17 82 17zM250 69q27 0 55 11q26 11 44 30q19 19 30 44q11 23 11 55 q0 30 -11 54q-11 25 -30 45q-18 19 -44 30q-28 11 -55 11q-26 0 -54 -11q-26 -10 -45 -30q-18 -20 -30 -45q-11 -28 -11 -54q0 -27 11 -55q11 -24 30 -44t45 -30q28 -11 54 -11zM153 483l97 82l98 -82l-45 -53l-53 44l-52 -44z" />
<glyph unicode="&#xf5;" d="M250 420q41 0 81 -17q39 -17 67 -45t45 -67q17 -40 17 -82t-17 -82q-17 -37 -45 -66q-28 -28 -67 -45q-35 -16 -81 -16q-47 0 -82 16q-38 16 -67 45t-45 66q-16 35 -16 82t16 82q17 39 45 67q29 29 67 45q40 17 82 17zM250 69q26 0 54 11q26 10 45 30q19 19 30 44 q11 28 11 55q0 26 -11 54q-11 25 -30 45t-45 30q-28 11 -54 11q-27 0 -55 -11q-25 -11 -44 -30q-19 -20 -30 -45q-11 -28 -11 -54q0 -27 11 -55q11 -25 30 -44t44 -30q28 -11 55 -11zM265 501q14 -11 31 -10t29.5 7t22.5 12l10 7l35 -38q-13 -11 -29.5 -19.5t-38.5 -15.5 t-46 -3.5t-45 18.5q-17 9 -31 10t-29.5 -7t-22.5 -13t-10 -8l-35 38q18 16 41.5 27t56.5 14t61 -19z" />
<glyph unicode="&#xf6;" d="M250 420q40 0 82 -17q39 -17 67 -45t45 -67q16 -35 16 -82t-16 -82q-16 -37 -45 -66q-28 -28 -67 -45q-36 -16 -82 -16t-82 16q-38 16 -66 45t-45 66q-17 40 -17 82t17 82q17 39 45 67t66 45q42 17 82 17zM250 69q27 0 55 11q26 11 44 30q19 19 30 44q11 23 11 55 q0 30 -11 54q-11 25 -30 45q-18 19 -44 30q-28 11 -55 11q-26 0 -54 -11q-26 -10 -45 -30q-18 -20 -30 -45q-11 -28 -11 -54q0 -27 11 -55q11 -24 30 -44t45 -30q28 -11 54 -11zM177 440v48h49v-48h-49zM275 440v48h49v-48h-49z" />
<glyph unicode="&#xf7;" horiz-adv-x="394" d="M162 228h70v-70h-70v70zM162 472h70v-70h-70v70zM40 350h314v-70h-314v70z" />
<glyph unicode="&#xf8;" d="M250 420q45 0 81 -16q24 -11 41 -23l31 32l50 -50l-32 -31q13 -17 22 -40q17 -42 17 -83q0 -42 -17 -82q-17 -37 -45 -66q-28 -28 -67 -44q-40 -17 -81 -17q-42 0 -82 17q-28 13 -40 22l-31 -32l-50 50l31 31q-13 19 -22 39q-16 35 -16 82t16 83q16 38 45 67q28 28 67 45 q35 16 82 16zM129 138l191 192q-7 4 -16 8q-28 11 -54 11q-27 0 -55 -11q-26 -11 -44 -30q-19 -19 -30 -44q-11 -23 -11 -55q0 -30 11 -54q1 -3 4 -8t4 -9zM250 69q26 0 54 11q26 10 45 30q18 20 30 45q11 28 11 54q0 27 -11 55q-6 10 -9 17l-192 -192q12 -7 17 -9 q28 -11 55 -11z" />
<glyph unicode="&#xf9;" horiz-adv-x="431" d="M214 0q-18 0 -35 3q-22 6 -33 11q-23 10 -30 16q-18 14 -25 21q-9 9 -21 26q-10 11 -16 30q-5 11 -11 33q-3 16 -3 35v122v123h36h35v-123v-122q0 -7 2 -21q1 -10 6 -21q1 -2 10 -18q5 -7 12 -15q5 -5 15 -13q4 -1 9 -5t9 -5q12 -5 19 -6q14 -2 21 -2q23 0 41 8 q19 7 35 22q15 16 22 35q8 18 8 41v122v123h36h35v-210v-210h-35h-36v17v18q-12 -9 -24 -15q-9 -5 -25 -11q-8 -3 -28 -7q-18 -2 -29 -2zM242 430l-98 82l45 53l98 -82z" />
<glyph unicode="&#xfa;" horiz-adv-x="431" d="M214 0q-18 0 -35 3q-22 6 -33 11q-23 10 -30 16q-18 14 -25 21q-9 9 -21 26q-10 11 -16 30q-5 11 -11 33q-3 16 -3 35v122v123h36h35v-123v-122q0 -7 2 -21q1 -10 6 -21q1 -2 10 -18q5 -7 12 -15q5 -5 15 -13q4 -1 9 -5t9 -5q12 -5 19 -6q14 -2 21 -2q23 0 41 8 q19 7 35 22q15 16 22 35q8 18 8 41v122v123h36h35v-210v-210h-35h-36v17v18q-12 -9 -24 -15q-9 -5 -25 -11q-8 -3 -28 -7q-18 -2 -29 -2zM287 512l-98 -82l-45 53l98 82z" />
<glyph unicode="&#xfb;" horiz-adv-x="431" d="M214 0q-18 0 -35 3q-22 6 -33 11q-23 10 -30 16q-18 14 -26 21q-7 8 -21 26q-6 7 -16 30q-4 11 -10 33q-3 16 -3 35v122v123h35h36v-123v-122q0 -7 2 -21q1 -10 6 -21l9 -18q8 -10 13 -15t15 -13q16 -9 17 -10q11 -5 20 -6q14 -2 21 -2q23 0 41 8q19 7 34 22t23 35 q8 21 8 41v122v123h35h36v-210v-210h-36h-35v17v18q-12 -9 -24 -15q-7 -4 -26 -11q-4 -2 -13.5 -4t-13.5 -3q-18 -2 -29 -2zM118 483l97 82l98 -82l-45 -53l-53 44l-52 -44z" />
<glyph unicode="&#xfc;" horiz-adv-x="431" d="M214 0q-18 0 -35 3q-22 6 -33 11q-23 10 -30 16q-18 14 -26 21q-7 8 -21 26q-6 7 -16 30q-4 11 -10 33q-3 16 -3 35v122v123h35h36v-123v-122q0 -7 2 -21q1 -10 6 -21l9 -18q8 -10 13 -15t15 -13q16 -9 17 -10q11 -5 20 -6q14 -2 21 -2q23 0 41 8q19 7 34 22t23 35 q8 21 8 41v122v123h35h36v-210v-210h-36h-35v17v18q-12 -9 -24 -15q-7 -4 -26 -11q-4 -2 -13.5 -4t-13.5 -3q-18 -2 -29 -2zM142 440v48h49v-48h-49zM240 440v48h49v-48h-49z" />
<glyph unicode="&#xfd;" horiz-adv-x="430" d="M390 25v395h-70v-245q0 -21 -9 -40q-5 -13 -22 -34q-10 -12 -33 -23q-20 -9 -41 -9t-41 9t-34 23q-17 21 -22 34q-8 22 -8 40v245h-70v-245q0 -38 13 -68q12 -29 37 -55q18 -18 56 -38q34 -14 69 -14q31 0 57 9q24 9 48 26v-10q0 -21 -9 -40q-5 -13 -22 -34 q-10 -12 -33 -23q-20 -9 -41 -9t-41 9q-23 11 -33 23q-15 17 -23 34l-65 -28q12 -29 37 -55q18 -18 56 -38q34 -14 69 -14t69 14q38 20 55 38q23 24 37 55q14 36 14 68zM286 503l-97 -82l-45 53l97 82z" />
<glyph unicode="&#xfe;" horiz-adv-x="477" d="M298 208h-187v-137h187q28 0 48 20t20 49q0 28 -20 48t-48 20zM110 0v-180h-70v810h70v-351h188q58 0 98.5 -40.5t40.5 -98.5v-1q0 -58 -40.5 -98.5t-98.5 -40.5h-188z" />
<glyph unicode="&#xff;" horiz-adv-x="430" d="M142 479h48v-48h-48v48zM240 479h48v-48h-48v48zM390 420v-395q0 -32 -14 -68q-14 -31 -37 -55q-17 -18 -55 -38q-34 -14 -69 -14t-69 14q-38 20 -56 38q-25 26 -37 55l65 28q8 -17 23 -34q10 -12 33 -23q20 -9 41 -9t41 9q23 11 33 23q17 21 22 34q9 19 9 40v10 q-24 -17 -48 -26q-26 -9 -57 -9q-35 0 -69 14q-38 20 -56 38q-25 26 -37 55q-13 30 -13 68v245h70v-245q0 -18 8 -40q5 -13 22 -34q14 -14 34 -23t41 -9t41 9q23 11 33 23q17 21 22 34q9 19 9 40v245h70z" />
<glyph unicode="&#x152;" horiz-adv-x="1037" d="M110 315q0 -101 71.5 -173t173.5 -72q101 0 173 72t72 173t-72 173t-173 72q-102 0 -173.5 -72t-71.5 -173zM40 315q0 130 92.5 222.5t222.5 92.5q149 0 245 -117v117h397v-70h-327v-138h121v-71h-121v-36v-244h327v-71h-397v117q-96 -117 -245 -117q-131 0 -223 92 t-92 223z" />
<glyph unicode="&#x153;" horiz-adv-x="849" d="M809 210q0 -20 -3 -36h-341q11 -46 48 -75t87 -29q39 0 71.5 19t49.5 51l60 -33q-28 -50 -75 -78.5t-106 -28.5q-53 0 -99 25t-76 69q-28 -44 -74.5 -69t-101.5 -25q-86 0 -147.5 61.5t-61.5 148.5t61.5 148.5t147.5 61.5q55 0 101.5 -25.5t74.5 -69.5q30 44 76 69.5 t99 25.5q87 0 148 -61.5t61 -148.5zM249 70q58 0 99 41t41 99t-41 99t-99 41t-99 -41t-41 -99t41 -99t99 -41zM465 245h270q-12 46 -49 75.5t-86 29.5t-86.5 -29.5t-48.5 -75.5z" />
<glyph unicode="&#x178;" horiz-adv-x="478" d="M166 699h48v-48h-48v48zM264 699h48v-48h-48v48zM120 630l119 -214l119 214h80l-164 -295v-334h-70v334l-164 295h80z" />
<glyph unicode="&#x2c6;" horiz-adv-x="275" d="M138 630l97 -82l-45 -53l-52 44l-53 -44l-45 53z" />
<glyph unicode="&#x2dc;" horiz-adv-x="453" d="M247 308q18 -14 40 -13t38.5 8.5t29.5 16.5l13 8l45 -49q-17 -14 -38.5 -25.5t-50 -20t-60 -4.5t-57.5 24q-15 10 -32.5 12t-31.5 -2.5t-27.5 -12t-20 -12.5t-9.5 -8l-46 49q17 15 38.5 27t49.5 21t59.5 5t59.5 -24z" />
<glyph unicode="&#x2000;" horiz-adv-x="409" />
<glyph unicode="&#x2001;" horiz-adv-x="818" />
<glyph unicode="&#x2002;" horiz-adv-x="409" />
<glyph unicode="&#x2003;" horiz-adv-x="818" />
<glyph unicode="&#x2004;" horiz-adv-x="272" />
<glyph unicode="&#x2005;" horiz-adv-x="204" />
<glyph unicode="&#x2006;" horiz-adv-x="136" />
<glyph unicode="&#x2007;" horiz-adv-x="136" />
<glyph unicode="&#x2008;" horiz-adv-x="102" />
<glyph unicode="&#x2009;" horiz-adv-x="163" />
<glyph unicode="&#x200a;" horiz-adv-x="45" />
<glyph unicode="&#x2010;" horiz-adv-x="478" d="M40 316h398v-71h-398v71z" />
<glyph unicode="&#x2011;" horiz-adv-x="478" d="M40 316h398v-71h-398v71z" />
<glyph unicode="&#x2013;" horiz-adv-x="478" d="M40 316h398v-71h-398v71z" />
<glyph unicode="&#x2014;" horiz-adv-x="665" d="M40 316h585v-71h-585v71z" />
<glyph unicode="&#x2018;" horiz-adv-x="169" d="M95 491q-15 0 -25 10t-10 25q0 40 21.5 72.5t47.5 32.5q12 0 12 -4q0 -1 -6 -14t-8.5 -29t1.5 -47q1 -2 1 -11q0 -14 -10 -24.5t-24 -10.5z" />
<glyph unicode="&#x2019;" horiz-adv-x="169" d="M74 630q15 0 25 -10t10 -25q0 -40 -21.5 -72.5t-47.5 -32.5q-12 0 -12 4q0 1 6 14t8.5 29t-1.5 47q-1 2 -1 11q0 14 10 24.5t24 10.5z" />
<glyph unicode="&#x201a;" horiz-adv-x="169" d="M74 69q15 0 25 -10t10 -25q0 -40 -21.5 -72.5t-47.5 -32.5q-12 0 -12 4q0 1 6 14t8.5 29t-1.5 47q-1 2 -1 11q0 14 10 24.5t24 10.5z" />
<glyph unicode="&#x201c;" horiz-adv-x="268" d="M95 490q-15 0 -25 10t-10 25q0 40 21.5 72.5t47.5 32.5q12 0 12 -4q0 -1 -6 -14t-8.5 -29t1.5 -47q1 -2 1 -11q0 -14 -10 -24.5t-24 -10.5zM194 490q-15 0 -25 10t-10 25q0 40 21.5 72.5t47.5 32.5q12 0 12 -4q0 -1 -6 -14t-8.5 -29t1.5 -47q1 -2 1 -11q0 -14 -10 -24.5 t-24 -10.5z" />
<glyph unicode="&#x201d;" horiz-adv-x="268" d="M74 630q15 0 25 -10t10 -25q0 -40 -21.5 -72.5t-47.5 -32.5q-12 0 -12 4q0 1 6 14t8.5 29t-1.5 47q-1 2 -1 11q0 14 10 24.5t24 10.5zM173 630q15 0 25 -10t10 -25q0 -40 -21.5 -72.5t-47.5 -32.5q-12 0 -12 4q0 1 6 14t8.5 29t-1.5 47q-1 2 -1 11q0 14 10 24.5t24 10.5z " />
<glyph unicode="&#x201e;" horiz-adv-x="268" d="M74 69q15 0 25 -10t10 -25q0 -40 -21.5 -72.5t-47.5 -32.5q-12 0 -12 4q0 1 6 14t8.5 29t-1.5 47q-1 2 -1 11q0 14 10 24.5t24 10.5zM173 69q15 0 25 -10t10 -25q0 -40 -21.5 -72.5t-47.5 -32.5q-12 0 -12 4q0 1 6 14t8.5 29t-1.5 47q-1 2 -1 11q0 14 10 24.5t24 10.5z " />
<glyph unicode="&#x2022;" horiz-adv-x="294" d="M70 249q0 32 22.5 54.5t54.5 22.5t54.5 -22.5t22.5 -54.5t-22.5 -54t-54.5 -22t-54.5 22t-22.5 54z" />
<glyph unicode="&#x2026;" horiz-adv-x="365" d="M109 0h-69v69h69v-69zM217 0h-69v69h69v-69zM325 0h-69v69h69v-69z" />
<glyph unicode="&#x202f;" horiz-adv-x="163" />
<glyph unicode="&#x2039;" horiz-adv-x="265" d="M225 229l-49 -50l-136 136l136 136l49 -49l-86 -87z" />
<glyph unicode="&#x203a;" horiz-adv-x="266" d="M40 229l87 86l-87 87l50 49l136 -136l-136 -136z" />
<glyph unicode="&#x205f;" horiz-adv-x="204" />
<glyph unicode="&#x20ac;" horiz-adv-x="645" d="M40 335v71h118q30 99 113 162t189 63q65 0 127 -27l-28 -64q-50 21 -99 21q-77 0 -139 -43t-89 -112h206v-71h-222q-1 -7 -1 -19q0 -13 1 -20h222v-70h-206q27 -69 89 -112t139 -43q57 0 113 27l32 -62q-68 -35 -145 -35q-106 0 -189 63t-113 162h-118v70h105v20v19h-105 z" />
<glyph unicode="&#x2122;" horiz-adv-x="473" d="M384 631h29v-262h-29v190l-77 -190h-31l-77 190v-190h-29v233h-50v-232h-29v232h-51v29h159h3l90 -223l90 223h2z" />
</font>
</defs>
</svg>
